HIERARCHY
ROOT Hips
{
  OFFSET -13.0721 38.0325 6.90851
  CHANNELS 6 Xposition Yposition Zposition Zrotation Xrotation Yrotation
  JOINT LeftHip
  {
    OFFSET 3.43 2.36234e-013 0
    CHANNELS 6 Xposition Yposition Zposition Zrotation Xrotation Yrotation
    JOINT LeftKnee
    {
      OFFSET -2.4869e-014 -18.47 -2.22045e-015
      CHANNELS 6 Xposition Yposition Zposition Zrotation Xrotation Yrotation
      JOINT LeftAnkle
      {
        OFFSET 1.06579e-014 -17.95 -2.18719e-014
        CHANNELS 6 Xposition Yposition Zposition Zrotation Xrotation Yrotation
        End Site
        {
          OFFSET 0 -3.12 0
        }
      }
    }
  }
  JOINT RightHip
  {
    OFFSET -3.43 2.26897e-013 -3.55271e-014
    CHANNELS 6 Xposition Yposition Zposition Zrotation Xrotation Yrotation
    JOINT RightKnee
    {
      OFFSET 2.84217e-014 -18.47 -3.10862e-015
      CHANNELS 6 Xposition Yposition Zposition Zrotation Xrotation Yrotation
      JOINT RightAnkle
      {
        OFFSET 2.04555e-015 -17.95 -9.35045e-014
        CHANNELS 6 Xposition Yposition Zposition Zrotation Xrotation Yrotation
        End Site
        {
          OFFSET 0 -3.12 0
        }
      }
    }
  }
  JOINT Chest
  {
    OFFSET -3.19744e-014 4.57 -3.01981e-014
    CHANNELS 6 Xposition Yposition Zposition Zrotation Xrotation Yrotation
    JOINT Chest2
    {
      OFFSET -1.42109e-014 6.57 4.44089e-016
      CHANNELS 6 Xposition Yposition Zposition Zrotation Xrotation Yrotation
      JOINT LeftCollar
      {
        OFFSET 1.06 4.19 1.76
        CHANNELS 6 Xposition Yposition Zposition Zrotation Xrotation Yrotation
        JOINT LeftShoulder
        {
          OFFSET 5.81 7.81597e-014 4.44089e-015
          CHANNELS 6 Xposition Yposition Zposition Zrotation Xrotation Yrotation
          JOINT LeftElbow
          {
            OFFSET -5.48584e-015 -12.08 1.09829e-013
            CHANNELS 6 Xposition Yposition Zposition Zrotation Xrotation Yrotation
            JOINT LeftWrist
            {
              OFFSET 0 -9.82 -4.44089e-016
              CHANNELS 6 Xposition Yposition Zposition Zrotation Xrotation Yrotation
              End Site
              {
                OFFSET 0 -7.37 0
              }
            }
          }
        }
      }
      JOINT RightCollar
      {
        OFFSET -1.06 4.19 1.76
        CHANNELS 6 Xposition Yposition Zposition Zrotation Xrotation Yrotation
        JOINT RightShoulder
        {
          OFFSET -6.06 -2.13163e-014 9.27036e-015
          CHANNELS 6 Xposition Yposition Zposition Zrotation Xrotation Yrotation
          JOINT RightElbow
          {
            OFFSET 1.84499e-013 -11.08 -2.17866e-014
            CHANNELS 6 Xposition Yposition Zposition Zrotation Xrotation Yrotation
            JOINT RightWrist
            {
              OFFSET 0 -9.82 -4.44089e-016
              CHANNELS 6 Xposition Yposition Zposition Zrotation Xrotation Yrotation
              End Site
              {
                OFFSET 0 -7.14001 0
              }
            }
          }
        }
      }
      JOINT Neck
      {
        OFFSET 5.32907e-014 4.05 1.38778e-014
        CHANNELS 6 Xposition Yposition Zposition Zrotation Xrotation Yrotation
        JOINT Head
        {
          OFFSET -3.55271e-015 5.19 -3.55271e-015
          CHANNELS 6 Xposition Yposition Zposition Zrotation Xrotation Yrotation
          End Site
          {
            OFFSET 0 4.14001 0
          }
        }
      }
    }
  }
}
MOTION
Frames:	9
Frame Time:	0.0333333
4.61656 38.5996 2.18123 -0.731193 2.74025 91.4543 3.43 -2.94009e-013 0 5.61898 -9.63839 7.10076 -2.4869e-014 -18.47 -2.22045e-015 5.12731 32.8053 42.8484 -2.57315e-012 -17.95 1.75604e-011 -24.3978 0.532675 0.117023 -3.43 -2.41862e-013 -3.55271e-014 -1.8186 -17.6446 -2.33172 2.84217e-014 -18.47 -3.10862e-015 0.768391 33.3848 -15.7231 1.96432e-012 -17.95 -1.34008e-012 2.22124 -16.4617 0.321374 -3.19744e-014 4.57 -3.01981e-014 3.13777 -0.293927 0.312964 -1.42109e-014 6.57 4.44089e-016 2.8259 -0.289015 0.490851 1.06 4.19 1.76 -4.23986 1.2054 -13.8734 5.81 7.81597e-014 4.44089e-015 17.3168 -7.61685 -18.4831 1.08967e-012 -12.08 1.21894e-013 120.734 -86.3075 -177.669 0 -9.82 -4.44089e-016 48.9767 20.2836 -9.21923 -1.06 4.19 1.76 9.03396 2.0651 15.553 -6.06 -2.13163e-014 9.27036e-015 -41.278 -45.0004 1.3154 -2.84094e-012 -11.08 -5.88797e-012 -166.266 -62.5411 165.839 0 -9.82 -4.44089e-016 -31.2963 11.6095 3.2587 5.32907e-014 4.05 1.38778e-014 0.973927 5.38841 0.982182 -3.55271e-015 5.19 -3.55271e-015 1.23157 -30.3092 1.50653 
4.63096 38.5971 2.21466 -0.774159 2.61199 92.1957 3.43 -1.63092e-013 0 6.7 -12.1342 7.14793 -2.4869e-014 -18.47 -2.22045e-015 4.45334 36.1486 28.4208 -2.57261e-012 -17.95 1.75558e-011 -22.3845 -3.58001 -0.69825 -3.43 -1.57263e-013 -3.55271e-014 -1.83142 -17.4794 -2.49335 2.84217e-014 -18.47 -3.10862e-015 1.07009 33.3237 -16.2168 1.95689e-012 -17.95 -1.45633e-012 2.20451 -16.6023 0.321662 -3.19744e-014 4.57 -3.01981e-014 3.28535 -0.377262 0.241618 -1.42109e-014 6.57 4.44089e-016 2.96435 -0.363685 0.436408 1.06 4.19 1.76 -4.1739 1.17645 -13.3091 5.81 7.81597e-014 4.44089e-015 18.4706 -13.2338 -14.6856 1.04877e-012 -12.08 1.24595e-013 147.667 -84.2252 -152.803 0 -9.82 -4.44089e-016 51.2768 8.9368 -4.37237 -1.06 4.19 1.76 9.88782 2.28387 16.4399 -6.06 -2.13163e-014 9.27036e-015 -37.202 -39.8796 8.55226 -2.81466e-012 -11.08 -5.89809e-012 -163.678 -62.0357 171.308 0 -9.82 -4.44089e-016 -30.5889 13.6068 3.74142 5.32907e-014 4.05 1.38778e-014 0.476176 5.17729 0.849889 -3.55271e-015 5.19 -3.55271e-015 1.92549 -29.572 1.24119 
4.60445 38.6309 2.22309 -0.891144 2.78589 93.1882 3.43 2.59959e-013 0 6.59561 -14.0181 6.62766 -2.4869e-014 -18.47 -2.22045e-015 3.37673 35.7166 20.5909 -2.57195e-012 -17.95 1.75505e-011 -18.386 -6.21996 -1.01547 -3.43 2.65288e-013 -3.55271e-014 -2.05039 -17.2948 -2.58068 2.84217e-014 -18.47 -3.10862e-015 1.00803 33.0978 -16.7251 1.94861e-012 -17.95 -1.57139e-012 2.42127 -16.5869 0.353064 -3.19744e-014 4.57 -3.01981e-014 3.18728 -0.402488 0.0799038 -1.42109e-014 6.57 4.44089e-016 2.88595 -0.384023 0.283398 1.06 4.19 1.76 -4.29233 1.18529 -13.0504 5.81 7.81597e-014 4.44089e-015 20.7239 -18.913 -9.09287 1.00737e-012 -12.08 1.27197e-013 163.188 -81.802 -135.666 0 -9.82 -4.44089e-016 48.1306 7.67858 -3.43084 -1.06 4.19 1.76 10.1627 2.36792 16.8403 -6.06 -2.13163e-014 9.27036e-015 -32.6827 -34.1099 14.4497 -2.78802e-012 -11.08 -5.90785e-012 -160.524 -63.6754 175.391 0 -9.82 -4.44089e-016 -32.5425 15.1742 4.446 5.32907e-014 4.05 1.38778e-014 0.01254 5.08457 0.671463 -3.55271e-015 5.19 -3.55271e-015 1.93525 -29.2333 0.898509 
4.58725 38.6238 2.17222 -0.955815 3.02616 93.9611 3.43 4.94604e-014 0 5.76562 -16.4554 5.84032 -2.4869e-014 -18.47 -2.22045e-015 2.73321 35.7757 17.6253 -2.5712e-012 -17.95 1.75445e-011 -15.5334 -6.748 -0.921575 -3.43 -1.17129e-014 -3.55271e-014 -2.54228 -17.2768 -2.86442 2.84217e-014 -18.47 -3.10862e-015 1.07839 33.3712 -16.6826 1.93945e-012 -17.95 -1.68477e-012 2.58969 -16.8462 0.383491 -3.19744e-014 4.57 -3.01981e-014 3.05148 -0.247339 -0.0754131 -1.42109e-014 6.57 4.44089e-016 2.77258 -0.241758 0.136217 1.06 4.19 1.76 -4.13413 1.15202 -12.7421 5.81 7.81597e-014 4.44089e-015 23.1533 -24.9277 -3.40502 9.65489e-013 -12.08 1.29695e-013 172.197 -79.2589 -126.27 0 -9.82 -4.44089e-016 48.0918 8.88265 -3.9536 -1.06 4.19 1.76 9.8948 2.32993 16.962 -6.06 -2.13163e-014 9.27036e-015 -28.7152 -29.5882 19.0098 -2.76102e-012 -11.08 -5.91726e-012 -156.344 -67.45 177.858 0 -9.82 -4.44089e-016 -36.2825 14.955 4.9383 5.32907e-014 4.05 1.38778e-014 -0.36525 4.87168 0.419963 -3.55271e-015 5.19 -3.55271e-015 1.79935 -29.1086 0.465264 
4.54705 38.6035 2.05552 -1.03097 3.03882 94.3028 3.43 1.82576e-013 0 4.98307 -17.4138 5.21729 -2.4869e-014 -18.47 -2.22045e-015 1.86578 32.2189 17.3541 -2.57033e-012 -17.95 1.75377e-011 -12.5849 -7.08749 -0.782304 -3.43 -5.38458e-014 -3.55271e-014 -3.05279 -17.3917 -3.25279 2.84217e-014 -18.47 -3.10862e-015 1.40028 33.6427 -16.3176 1.92942e-012 -17.95 -1.79601e-012 2.60398 -17.0293 0.389937 -3.19744e-014 4.57 -3.01981e-014 3.08832 -0.00912399 -0.17489 -1.42109e-014 6.57 4.44089e-016 2.81253 -0.0248597 0.0466471 1.06 4.19 1.76 -4.06956 1.12494 -12.1918 5.81 7.81597e-014 4.44089e-015 25.7612 -29.9758 1.72156 9.23111e-013 -12.08 1.32086e-013 177.175 -77.2098 -125.919 0 -9.82 -4.44089e-016 43.3146 12.0657 -4.80582 -1.06 4.19 1.76 9.88582 2.37322 17.4845 -6.06 -2.13163e-014 9.27036e-015 -27.2546 -25.8336 21.1061 -2.73366e-012 -11.08 -5.9263e-012 -151.565 -71.5855 -179.391 0 -9.82 -4.44089e-016 -37.5299 17.6579 6.00866 5.32907e-014 4.05 1.38778e-014 -0.673863 4.79695 0.389944 -3.55271e-015 5.19 -3.55271e-015 2.07017 -29.323 0.337746 
4.5216 38.572 1.90185 -1.0544 2.83272 94.2844 3.43 -3.25018e-013 0 4.40761 -18.0331 4.63151 -2.4869e-014 -18.47 -2.22045e-015 1.15569 28.1118 16.5694 -2.56936e-012 -17.95 1.75303e-011 -9.75856 -6.63854 -0.569906 -3.43 -2.99744e-013 -3.55271e-014 -3.16617 -17.5188 -3.30945 2.84217e-014 -18.47 -3.10862e-015 1.46492 33.8948 -16.0039 1.91849e-012 -17.95 -1.90464e-012 2.78856 -17.1209 0.419815 -3.19744e-014 4.57 -3.01981e-014 3.24957 0.323619 0.0655736 -1.42109e-014 6.57 4.44089e-016 2.94307 0.27617 0.272286 1.06 4.19 1.76 -4.20828 1.13376 -11.89 5.81 7.81597e-014 4.44089e-015 28.1758 -34.6522 5.7479 8.80238e-013 -12.08 1.34367e-013 179.891 -75.5181 -126.938 0 -9.82 -4.44089e-016 38.5133 13.2039 -4.63751 -1.06 4.19 1.76 10.2828 2.47748 17.825 -6.06 -2.13163e-014 9.27036e-015 -27.487 -22.4457 21.8744 -2.70597e-012 -11.08 -5.93499e-012 -143.238 -76.2074 -170.952 0 -9.82 -4.44089e-016 -33.0652 21.5391 6.47623 5.32907e-014 4.05 1.38778e-014 -0.756501 4.62515 0.283911 -3.55271e-015 5.19 -3.55271e-015 1.88798 -29.0649 0.18507 
4.51662 38.561 1.70714 -1.33008 2.71413 94.159 3.43 -2.75722e-013 0 3.78175 -19.422 4.01643 -2.4869e-014 -18.47 -2.22045e-015 0.614653 25.4241 16.4072 -2.56829e-012 -17.95 1.75222e-011 -7.56938 -4.72575 -0.313447 -3.43 -2.29611e-013 -3.55271e-014 -3.45937 -17.7745 -3.45527 2.84217e-014 -18.47 -3.10862e-015 1.53072 33.9876 -15.5649 1.90667e-012 -17.95 -2.01019e-012 2.97483 -17.1683 0.449191 -3.19744e-014 4.57 -3.01981e-014 3.33432 0.469447 0.271735 -1.42109e-014 6.57 4.44089e-016 3.00665 0.407592 0.464214 1.06 4.19 1.76 -4.71156 1.19085 -11.5898 5.81 7.81597e-014 4.44089e-015 30.0556 -39.271 9.20046 8.36868e-013 -12.08 1.36534e-013 -177.778 -74.1522 -125.897 0 -9.82 -4.44089e-016 39.0084 12.5407 -4.45718 -1.06 4.19 1.76 10.4786 2.53923 18.0961 -6.06 -2.13163e-014 9.27036e-015 -28.2251 -19.4809 23.7227 -2.67793e-012 -11.08 -5.94333e-012 -126.197 -80.7468 -156.478 0 -9.82 -4.44089e-016 -32.6067 22.2369 6.57688 5.32907e-014 4.05 1.38778e-014 -1.0081 4.57985 0.264647 -3.55271e-015 5.19 -3.55271e-015 1.98903 -29.087 0.0593346 
4.53969 38.5114 1.49749 -1.78968 2.41165 94.1958 3.43 -2.17049e-013 0 3.38474 -21.702 3.63773 -2.4869e-014 -18.47 -2.22045e-015 0.147711 24.6328 17.8002 -2.56711e-012 -17.95 1.75134e-011 -5.86632 -2.55478 -0.130419 -3.43 -7.10543e-014 -3.55271e-014 -3.60372 -18.3461 -3.47796 2.84217e-014 -18.47 -3.10862e-015 1.58228 34.3785 -15.3157 1.89393e-012 -17.95 -2.1122e-012 3.33074 -17.353 0.508437 -3.19744e-014 4.57 -3.01981e-014 3.43859 0.409042 0.352697 -1.42109e-014 6.57 4.44089e-016 3.0965 0.351798 0.542418 1.06 4.19 1.76 -4.76474 1.18741 -11.319 5.81 7.81597e-014 4.44089e-015 30.8951 -43.1183 11.6746 7.92998e-013 -12.08 1.38583e-013 -175.967 -72.8955 -124.039 0 -9.82 -4.44089e-016 41.8779 11.6994 -4.48458 -1.06 4.19 1.76 10.6234 2.59073 18.349 -6.06 -2.13163e-014 9.27036e-015 -28.5994 -16.3415 24.7705 -2.64956e-012 -11.08 -5.95132e-012 -93.5495 -83.5616 -128.789 0 -9.82 -4.44089e-016 -35.8637 21.6533 7.09155 5.32907e-014 4.05 1.38778e-014 -1.09786 4.68653 0.223114 -3.55271e-015 5.19 -3.55271e-015 2.04839 -29.102 0.0143758 
4.60823 38.4811 1.27151 -2.01823 2.099 94.3825 3.43 -1.27822e-013 0 2.97769 -22.9919 3.16728 -2.4869e-014 -18.47 -2.22045e-015 0.0494107 23.7829 17.9397 -2.56583e-012 -17.95 1.75039e-011 -4.66553 -1.01519 -0.0402936 -3.43 1.91513e-014 -3.55271e-014 -3.76959 -18.4386 -3.59852 2.84217e-014 -18.47 -3.10862e-015 1.69491 34.5255 -15.4295 1.88026e-012 -17.95 -2.21018e-012 3.76243 -17.5252 0.580123 -3.19744e-014 4.57 -3.01981e-014 3.45629 0.558356 0.375784 -1.42109e-014 6.57 4.44089e-016 3.1112 0.488234 0.562743 1.06 4.19 1.76 -4.89562 1.19686 -11.1265 5.81 7.81597e-014 4.44089e-015 32.2332 -46.6687 12.4007 7.48626e-013 -12.08 1.40511e-013 -176.155 -72.1134 -124.154 0 -9.82 -4.44089e-016 45.9289 10.8753 -4.62452 -1.06 4.19 1.76 11.2182 2.75826 18.8762 -6.06 -2.13163e-014 9.27036e-015 -29.4938 -12.349 23.3856 -2.62087e-012 -11.08 -5.95895e-012 -59.1455 -83.9035 -103.602 0 -9.82 -4.44089e-016 -42.076 22.5388 8.77207 5.32907e-014 4.05 1.38778e-014 -1.07579 4.48814 0.188005 -3.55271e-015 5.19 -3.55271e-015 1.8469 -28.7577 -0.046817 
